<?xml version="1.0" encoding="utf-8"?>
<!-- Generator: Adobe Illustrator 26.0.2, SVG Export Plug-In . SVG Version: 6.00 Build 0)  -->
<svg version="1.1" id="Layer_2" xmlns="http://www.w3.org/2000/svg" xmlns:xlink="http://www.w3.org/1999/xlink" x="0px" y="0px"
	 viewBox="0 0 612 792" style="enable-background:new 0 0 612 792;" xml:space="preserve">
<style type="text/css">
	.st0{fill:none;stroke:#000000;stroke-miterlimit:10;}
</style>
<path class="st0" d="M83.08,759.38h147.86c9.96,0.37,11.97-6.28,11.74-14.91l0.23-182.89h-7.75l-0.09-30.77l7.84-0.12l2.07-506.2
	H72.52L72,744.71C71.83,760.76,77.87,759.1,83.08,759.38z"/>
<rect x="133.41" y="586.14" class="st0" width="22.79" height="22.79"/>
<rect x="134.08" y="481.23" class="st0" width="22.12" height="22.79"/>
<rect x="134.08" y="376.06" class="st0" width="22.12" height="23.16"/>
<rect x="134.08" y="271.17" class="st0" width="22.89" height="22.89"/>
<rect x="134.08" y="166.13" class="st0" width="22.89" height="22.89"/>
<circle class="st0" cx="143.97" cy="702.45" r="6.96"/>
<circle class="st0" cx="185.33" cy="621.48" r="5.84"/>
<circle class="st0" cx="185.78" cy="573.44" r="5.84"/>
<circle class="st0" cx="185.7" cy="516.61" r="5.84"/>
<circle class="st0" cx="185.7" cy="492.62" r="5.84"/>
<circle class="st0" cx="185.9" cy="468.48" r="5.84"/>
<circle class="st0" cx="186.05" cy="411.75" r="5.84"/>
<circle class="st0" cx="186.24" cy="387.64" r="5.84"/>
<circle class="st0" cx="186.24" cy="363.54" r="5.84"/>
<circle class="st0" cx="186.24" cy="330.91" r="5.84"/>
<circle class="st0" cx="186.24" cy="306.75" r="5.84"/>
<circle class="st0" cx="186.45" cy="282.61" r="5.84"/>
<circle class="st0" cx="186.66" cy="258.56" r="5.84"/>
<circle class="st0" cx="186.66" cy="234.55" r="5.84"/>
<g>
	<circle class="st0" cx="96.53" cy="191.89" r="7.08"/>
	<path class="st0" d="M97.48,172.89h-2.1c-0.78,0-1.41,0.64-1.41,1.41v34.99c0,0.78,0.64,1.41,1.41,1.41h2.1
		c0.78,0,1.41-0.64,1.41-1.41V174.3C98.89,173.52,98.25,172.89,97.48,172.89z"/>
</g>
<g>
	<circle class="st0" cx="217.54" cy="305.42" r="7.08"/>
	<path class="st0" d="M218.49,286.41h-2.1c-0.78,0-1.41,0.64-1.41,1.41v34.99c0,0.78,0.64,1.41,1.41,1.41h2.1
		c0.78,0,1.41-0.64,1.41-1.41v-34.99C219.9,287.05,219.26,286.41,218.49,286.41z"/>
</g>
<g>
	<circle class="st0" cx="93.46" cy="456.61" r="7.08"/>
	<path class="st0" d="M94.41,437.6h-2.1c-0.78,0-1.41,0.64-1.41,1.41v34.99c0,0.78,0.64,1.41,1.41,1.41h2.1
		c0.78,0,1.41-0.64,1.41-1.41v-34.99C95.83,438.24,95.19,437.6,94.41,437.6z"/>
</g>
<g>
	<circle class="st0" cx="216.1" cy="655.07" r="7.08"/>
	<path class="st0" d="M217.05,636.06h-2.1c-0.78,0-1.41,0.64-1.41,1.41v34.99c0,0.78,0.64,1.41,1.41,1.41h2.1
		c0.78,0,1.41-0.64,1.41-1.41v-34.99C218.46,636.69,217.83,636.06,217.05,636.06z"/>
</g>
<rect x="71.99" y="277.82" class="st0" width="8.93" height="23.76"/>
<rect x="72.13" y="532.49" class="st0" width="7.44" height="27.26"/>
<rect x="71.99" y="627.32" class="st0" width="8.85" height="23.09"/>
<rect x="71.55" y="744.42" class="st0" width="11.52" height="14.98"/>
<rect x="230.71" y="744.02" class="st0" width="11.97" height="15.97"/>
<rect x="227.27" y="532.08" class="st0" width="6.83" height="27.69"/>
<rect x="234.78" y="428.23" class="st0" width="8.55" height="24.01"/>
<rect x="235.96" y="104.83" class="st0" width="8.28" height="23.93"/>
<rect x="86.38" y="367.02" class="st0" width="26.68" height="21.47"/>
<rect x="85.73" y="679.57" class="st0" width="26.52" height="42.76"/>
<g>
	<circle class="st0" cx="217.54" cy="305.42" r="15.22"/>
	<path class="st0" d="M219.01,283.93h-3.27c-1.87,0-3.39,1.53-3.39,3.39v36.27c0,1.87,1.53,3.39,3.39,3.39h3.27
		c1.87,0,3.39-1.53,3.39-3.39v-36.27C222.4,285.46,220.88,283.93,219.01,283.93z"/>
</g>
<g>
	<circle class="st0" cx="96.53" cy="191.86" r="15.22"/>
	<path class="st0" d="M98,170.37h-3.27c-1.87,0-3.39,1.53-3.39,3.39v36.27c0,1.87,1.53,3.39,3.39,3.39H98
		c1.87,0,3.39-1.53,3.39-3.39v-36.27C101.4,171.89,99.87,170.37,98,170.37z"/>
</g>
<g>
	<circle class="st0" cx="93.46" cy="456.48" r="15.22"/>
	<path class="st0" d="M94.93,434.99h-3.27c-1.87,0-3.39,1.53-3.39,3.39v36.27c0,1.87,1.53,3.39,3.39,3.39h3.27
		c1.87,0,3.39-1.53,3.39-3.39v-36.27C98.33,436.51,96.8,434.99,94.93,434.99z"/>
</g>
<g>
	<circle class="st0" cx="216.1" cy="655.03" r="15.22"/>
	<path class="st0" d="M217.57,633.54h-3.27c-1.87,0-3.39,1.53-3.39,3.39v36.27c0,1.87,1.53,3.39,3.39,3.39h3.27
		c1.87,0,3.39-1.53,3.39-3.39v-36.27C220.97,635.07,219.44,633.54,217.57,633.54z"/>
</g>
</svg>
